<svg width="40" height="44" viewBox="0 0 40 44" fill="none" xmlns="http://www.w3.org/2000/svg">
<path d="M39.9464 0.0182166V41.2062H13.192C13.2512 41.1197 13.3013 41.0195 13.3559 40.9284C13.4621 40.7463 13.5623 40.5551 13.6564 40.3547C13.7019 40.2591 13.7475 40.1589 13.793 40.0497C13.8385 39.9404 13.8795 39.8448 13.9205 39.7401L14.0434 39.4259C14.0707 39.3348 14.0981 39.2483 14.1299 39.1572C14.1618 39.0662 14.1618 39.048 14.18 38.9888C14.1982 38.9296 14.2483 38.6427 14.2529 38.6245H37.3465V2.61352H11.3935V27.7516C11.3161 27.6559 10.9154 27.2325 10.8289 27.1369C10.7424 27.0413 10.5967 26.8728 10.4829 26.7408C10.0275 26.2217 9.54945 25.7482 9.1169 25.3338C9.02129 25.2382 8.92567 25.1517 8.83005 25.0652L8.80273 25.0424V0L39.9464 0.0182166Z" fill="#006838"/>
<path d="M13.01 36.0932C13.01 36.1388 13.01 36.1888 13.01 36.2435C13.01 36.2981 13.01 36.3573 13.01 36.4165C13.01 36.4757 13.01 36.4711 13.01 36.503C13.01 36.5349 13.01 36.6943 12.9873 36.7853C12.9645 36.8764 12.9645 36.9583 12.9508 37.0403C12.9537 37.0812 12.9537 37.1223 12.9508 37.1632C12.9508 37.2406 12.9281 37.3135 12.9144 37.3818C12.9008 37.4501 12.878 37.5821 12.8552 37.6732L12.7869 37.9464L12.7323 38.1467C12.7323 38.1877 12.705 38.2378 12.6913 38.2742L12.6185 38.4928L12.5228 38.7477C12.5001 38.8115 12.4728 38.8707 12.4454 38.9299L12.4181 39.0027L12.3088 39.2486C12.2314 39.4034 12.1495 39.5536 12.0675 39.7039L11.9355 39.927L11.8034 40.1365C11.6987 40.2958 11.5894 40.4461 11.4711 40.5918C11.3527 40.7375 11.248 40.8741 11.1296 41.0107C11.0795 41.0744 11.0249 41.129 10.9748 41.1882C10.9635 41.2054 10.9497 41.2207 10.9338 41.2338C10.8963 41.2767 10.8552 41.3163 10.8109 41.3521L10.565 41.6026L10.31 41.8302L10.1825 41.9395C10.096 42.0078 10.0095 42.0852 9.92299 42.1444C9.67517 42.342 9.41676 42.5259 9.14895 42.6953C8.89852 42.8592 8.6481 43.0049 8.41133 43.1506L8.19734 43.2645C8.11083 43.3055 8.02887 43.351 7.94692 43.3829C7.88138 43.4203 7.81284 43.4523 7.74202 43.4785H7.7147L7.54168 43.5559L7.30036 43.656L7.18199 43.7061L6.95887 43.7926C6.68568 43.8928 6.50356 43.9338 6.50356 43.9338C6.50356 43.9338 6.33964 43.8928 6.04824 43.7926L5.82514 43.7061C5.76942 43.6787 5.71156 43.6558 5.65212 43.6378C5.53373 43.5878 5.4017 43.5286 5.2651 43.4603C5.20136 43.4375 5.13306 43.4011 5.06476 43.3692C4.64823 43.1696 4.24518 42.9429 3.85817 42.6908C3.6123 42.536 3.36188 42.3584 3.1069 42.1626L2.95664 42.0442C2.91566 42.0033 2.87013 41.9714 2.82915 41.9349C2.78818 41.8985 2.74264 41.8575 2.70167 41.8257C2.58328 41.7164 2.4649 41.6162 2.34652 41.5024L2.3192 41.4751C2.23724 41.3977 2.15984 41.3157 2.07788 41.2292C2.00801 41.159 1.94262 41.0845 1.88209 41.0061C1.8107 40.9344 1.7438 40.8584 1.68176 40.7785L1.60891 40.6874L1.42678 40.4506C1.27975 40.2513 1.14298 40.0446 1.017 39.8314L0.930484 39.6857C0.788858 39.441 0.664118 39.187 0.557128 38.9253C0.526283 38.86 0.498922 38.7932 0.475167 38.725C0.443295 38.643 0.406874 38.5565 0.379555 38.47C0.352236 38.3835 0.329468 38.3288 0.306702 38.2514C0.306702 38.2514 0.306702 38.1695 0.270276 38.1331C0.233851 38.0966 0.2293 37.9965 0.215641 37.9327C0.188065 37.8429 0.165263 37.7517 0.147339 37.6595C0.129126 37.5715 0.110916 37.4895 0.0927031 37.4137C0.0927031 37.3681 0.0927031 37.3317 0.0927031 37.2862C0.0927031 37.2406 0.0927031 37.2543 0.0927031 37.2452C0.0904934 37.2316 0.0904934 37.2178 0.0927031 37.2042C0.0927031 37.145 0.0699339 37.0858 0.0608276 37.0266C0.0517212 36.9674 0.0380653 36.8582 0.028959 36.7717L0.00164112 36.4894C0.00164112 36.4575 0.00164112 36.4302 0.00164112 36.4028C0.00164112 36.3755 0.00164112 36.3072 0.00164112 36.2571V36.2298C-0.00054704 36.1889 -0.00054704 36.1478 0.00164112 36.1069C-0.000198734 36.0979 -0.000198734 36.0886 0.00164112 36.0796C0.00164112 35.77 0.00164112 35.4376 0.00164112 35.1006C0.00164112 34.9959 0.00163751 34.8866 0.0335097 34.7819C0.0353833 34.7714 0.0353833 34.7606 0.0335097 34.75C0.0335097 34.75 0.0335097 34.7136 0.0335097 34.6863C0.0335097 34.659 0.033513 34.5361 0.0653852 34.4587C0.0623766 34.436 0.0623766 34.413 0.0653852 34.3904C0.0783889 34.2863 0.0966224 34.183 0.120021 34.0807C0.117048 34.0626 0.117048 34.0442 0.120021 34.0261C0.156446 33.847 0.197427 33.674 0.242958 33.507C0.242958 33.4661 0.242957 33.4342 0.270276 33.4023C0.297595 33.3704 0.297596 33.3158 0.306702 33.2703C0.315809 33.2247 0.356786 33.1109 0.384106 33.0335C0.41434 32.9238 0.450828 32.8158 0.493384 32.7102C0.493384 32.7102 0.493384 32.7102 0.493384 32.6829C0.529809 32.5873 0.566235 32.4871 0.607213 32.3915C0.630967 32.3233 0.658321 32.2565 0.689167 32.1912L0.743803 32.0546C0.780228 31.9726 0.816653 31.8907 0.857632 31.8178C0.867615 31.7874 0.881387 31.7583 0.898616 31.7313C0.935041 31.6448 0.976017 31.5628 1.017 31.4854L1.19457 31.1439L1.36303 30.848C1.42678 30.7342 1.49508 30.6203 1.56337 30.511L1.71363 30.2788C1.77282 30.1787 1.83657 30.0922 1.90031 29.9965L2.12341 29.6733L2.36474 29.35C2.36474 29.35 2.36474 29.35 2.36474 29.3227C2.43759 29.2225 2.51043 29.1314 2.58784 29.0404L2.63792 28.9675L2.91567 28.6397C3.01128 28.5304 3.10234 28.4212 3.19796 28.3164C3.57132 27.8975 3.94468 27.5151 4.29983 27.1872L4.53204 26.9687C4.56847 26.9368 4.60489 26.8958 4.64587 26.864C4.86898 26.6591 5.07842 26.4815 5.27421 26.3176L5.37892 26.2311L5.58382 26.0672L5.71587 25.9624L6.00272 25.7439C6.13109 25.6412 6.26482 25.5455 6.40339 25.457H6.4808C6.61936 25.5455 6.75311 25.6412 6.88148 25.7439C7.35641 26.0927 7.81238 26.4666 8.24743 26.864L8.36126 26.9687L8.58891 27.1872L8.7938 27.3785C9.0852 27.6608 9.39026 27.9749 9.70443 28.3164L9.98218 28.6397C10.0778 28.7444 10.1689 28.8583 10.2599 28.9675C10.2796 28.9907 10.2978 29.015 10.3146 29.0404C10.3874 29.1314 10.4648 29.2225 10.5377 29.3227L10.5604 29.35C10.6378 29.4502 10.7198 29.5594 10.7972 29.6733C10.8928 29.8053 10.9793 29.9374 11.0704 30.0648C11.1614 30.1923 11.2707 30.3745 11.3664 30.5202C11.3664 30.5429 11.3937 30.5702 11.4073 30.5885C11.5166 30.7706 11.6259 30.9482 11.7306 31.1394C11.7807 31.2441 11.8353 31.3397 11.89 31.4445L12.0402 31.7541L12.2178 32.1411C12.3316 32.4143 12.4363 32.6784 12.5274 32.9607C12.5729 33.1018 12.6185 33.2384 12.6549 33.3796C12.7186 33.5936 12.7733 33.8349 12.8188 34.0398C12.8188 34.0398 12.8188 34.0716 12.8188 34.0944C12.8188 34.19 12.8552 34.2993 12.8734 34.404V34.4723C12.8734 34.5634 12.9008 34.6681 12.9099 34.7637C12.9099 34.8775 12.9372 34.9959 12.9417 35.1143C12.9847 35.4389 13.0075 35.7658 13.01 36.0932Z" fill="#19A526"/>
<path d="M35.9759 20.6763V20.781C35.9781 20.8205 35.9781 20.86 35.9759 20.8994C35.9781 20.9206 35.9781 20.942 35.9759 20.9632C35.9759 21.0269 35.9759 21.0952 35.9759 21.159C35.9759 21.2227 35.9759 21.2819 35.9759 21.3365V21.423C35.9759 21.4731 35.9759 21.5232 35.9531 21.5733C35.9304 21.6234 35.9258 21.7099 35.9076 21.7782C35.8894 21.8465 35.8803 21.9011 35.8621 21.9649C35.8438 22.0286 35.8393 22.0605 35.8256 22.1015C35.8171 22.134 35.8064 22.1659 35.7938 22.1971C35.7938 22.2472 35.7619 22.2973 35.7437 22.3473C35.7255 22.3974 35.7027 22.4657 35.6799 22.5249L35.6253 22.6524V22.6979L35.5479 22.8709C35.4932 22.9757 35.4386 23.085 35.3794 23.1897L35.2884 23.3445C35.2607 23.3947 35.2303 23.4433 35.1973 23.4902C35.1244 23.604 35.0516 23.7087 34.9696 23.8135C34.8877 23.9182 34.8148 24.0092 34.7329 24.1049C34.6964 24.1504 34.66 24.1868 34.6236 24.2278L34.5963 24.2597L34.5098 24.3416L34.3413 24.5146L34.1637 24.6695L34.0772 24.7469L33.8951 24.8926C33.713 25.0337 33.5354 25.1612 33.3578 25.275C33.1802 25.3888 33.0072 25.489 32.8433 25.5801L32.6976 25.6575L32.52 25.744L32.3789 25.8077L32.2605 25.8624L32.092 25.9352L32.0101 25.9671L31.8553 26.0263C31.664 26.0991 31.5502 26.131 31.5502 26.131C31.5502 26.131 31.4364 26.0991 31.2497 26.0263L31.0949 25.9671L30.972 25.9216L30.7033 25.7986L30.5667 25.7349C30.2784 25.6005 29.9986 25.4484 29.7289 25.2796C29.5559 25.1703 29.3829 25.0474 29.2053 24.9108L29.1006 24.8288L29.0095 24.7514L28.923 24.674L28.6772 24.4509C28.618 24.3963 28.5633 24.3371 28.5087 24.2779C28.4597 24.231 28.414 24.1808 28.3721 24.1276L28.2309 23.9683C28.2168 23.9451 28.2 23.9237 28.1809 23.9045L28.0579 23.736C27.9519 23.6006 27.8561 23.4576 27.7711 23.3081C27.7497 23.2757 27.7299 23.2423 27.7119 23.2079C27.6136 23.0379 27.5269 22.8614 27.4524 22.6797C27.4299 22.6354 27.4101 22.5898 27.3932 22.5431C27.3704 22.4839 27.3476 22.4247 27.3294 22.3656C27.3112 22.3064 27.293 22.2654 27.2793 22.2153C27.2657 22.1652 27.2793 22.2153 27.2793 22.2153L27.252 22.1288C27.252 22.0878 27.2247 22.0377 27.2156 21.9922C27.1961 21.9311 27.1809 21.8687 27.1701 21.8055L27.1291 21.6325V21.546C27.1291 21.546 27.1291 21.546 27.1291 21.5141C27.1266 21.5052 27.1266 21.4957 27.1291 21.4868C27.1269 21.4458 27.1269 21.4048 27.1291 21.3638C27.1291 21.3092 27.1291 21.25 27.1063 21.1863C27.0835 21.1225 27.1063 21.0542 27.1063 20.9905C27.1063 20.9267 27.1063 20.9495 27.1063 20.9267C27.1063 20.904 27.1063 20.863 27.1063 20.8266V20.7219C27.1063 20.5079 27.1063 20.2665 27.1063 20.0434C27.1063 19.9706 27.1063 19.8932 27.1063 19.8203C27.1091 19.813 27.1091 19.8049 27.1063 19.7976C27.1088 19.7825 27.1088 19.7671 27.1063 19.752C27.1063 19.7019 27.1063 19.6473 27.1063 19.5927C27.1063 19.538 27.1063 19.5608 27.1063 19.5471C27.1155 19.4735 27.1292 19.4005 27.1473 19.3286C27.1453 19.3165 27.1453 19.3042 27.1473 19.2922C27.1746 19.1692 27.2019 19.0508 27.2338 18.9325C27.2338 18.9051 27.2338 18.8824 27.2338 18.8596L27.2611 18.7686C27.2611 18.7139 27.293 18.6547 27.3112 18.6046C27.3294 18.5545 27.3613 18.4498 27.3886 18.377C27.4159 18.3087 27.4387 18.2404 27.4706 18.1721C27.5024 18.1038 27.5024 18.081 27.5252 18.0309L27.5616 17.9399L27.6436 17.7714C27.6499 17.7505 27.6591 17.7306 27.6709 17.7122C27.6982 17.653 27.7255 17.5938 27.7529 17.5437L27.8758 17.307L27.9942 17.0975L28.1308 16.8653L28.2355 16.7014L28.3675 16.5056L28.5224 16.2871L28.6908 16.0594C28.7409 15.9957 28.791 15.9274 28.8456 15.8636C28.8547 15.8474 28.8654 15.8322 28.8775 15.8181L29.0733 15.5859C29.137 15.5085 29.2008 15.4356 29.2691 15.3628C29.5286 15.0714 29.7881 14.8073 30.034 14.5751L30.1934 14.4248L30.2753 14.3565C30.4301 14.2108 30.5758 14.0879 30.7306 13.9741L30.7989 13.9149L30.9446 13.801L31.0357 13.7282L31.236 13.5734C31.4091 13.4413 31.5138 13.373 31.5138 13.373H31.5684C31.5684 13.373 31.6731 13.4413 31.8462 13.5734C32.0192 13.7054 32.4016 14.0014 32.7887 14.3565L32.8706 14.4248L33.03 14.5751L33.1711 14.7117C33.3715 14.9075 33.5855 15.126 33.7949 15.3628C33.8587 15.4356 33.927 15.5085 33.9907 15.5859L34.1819 15.8181C34.1968 15.8309 34.2091 15.8463 34.2184 15.8636L34.3777 16.0594L34.5416 16.2871C34.6054 16.3736 34.6646 16.4646 34.7283 16.5603C34.7921 16.6559 34.8695 16.7697 34.9332 16.879L34.9651 16.92C35.0379 17.0474 35.1153 17.1749 35.1882 17.307L35.2975 17.5164C35.3339 17.5893 35.3703 17.6576 35.4022 17.7304L35.5251 18.0036C35.6071 18.1903 35.6799 18.377 35.7437 18.5682C35.771 18.6684 35.8029 18.764 35.8302 18.8596C35.8575 18.9552 35.9121 19.1647 35.944 19.3149C35.946 19.327 35.946 19.3393 35.944 19.3514L35.985 19.5699V19.6154C35.985 19.6837 35.985 19.752 36.0078 19.8203C36.0078 19.9023 36.0078 19.9842 36.0305 20.0662C36.0232 20.2704 36.005 20.4741 35.9759 20.6763Z" fill="#FF8500"/>
</svg>
