<svg width="32" height="32" viewBox="0 0 32 32" fill="none" xmlns="http://www.w3.org/2000/svg">
<path d="M25 27C25.5523 27 26 26.5523 26 26V23.3333C26 21.9188 25.4381 20.5623 24.4379 19.5621C23.4377 18.5619 22.0812 18 20.6667 18H11.3333C9.91885 18 8.56229 18.5619 7.5621 19.5621C6.5619 20.5623 6 21.9188 6 23.3333V26" stroke="#646464" stroke-width="1.5" stroke-linecap="round" stroke-linejoin="round"/>
<path d="M16 14C18.7614 14 21 11.7614 21 9C21 6.23858 18.7614 4 16 4C13.2386 4 11 6.23858 11 9C11 11.7614 13.2386 14 16 14Z" stroke="#646464" stroke-width="1.5" stroke-linecap="round" stroke-linejoin="round"/>
</svg>
