<svg width="32" height="32" viewBox="0 0 32 32" fill="none" xmlns="http://www.w3.org/2000/svg">
<path d="M26.6668 16V29.3333H5.3335V16" stroke="#646464" stroke-width="1.5" stroke-linecap="round" stroke-linejoin="round"/>
<path d="M29.3332 9.33398H2.6665V16.0007H29.3332V9.33398Z" stroke="#646464" stroke-width="1.5" stroke-linecap="round" stroke-linejoin="round"/>
<path d="M16 29.334V9.33398" stroke="#646464" stroke-width="1.5" stroke-linecap="round" stroke-linejoin="round"/>
<path d="M15.9998 9.33268H9.99984C9.11578 9.33268 8.26794 8.98149 7.64281 8.35637C7.01769 7.73125 6.6665 6.8834 6.6665 5.99935C6.6665 5.11529 7.01769 4.26745 7.64281 3.64233C8.26794 3.01721 9.11578 2.66602 9.99984 2.66602C14.6665 2.66602 15.9998 9.33268 15.9998 9.33268Z" stroke="#646464" stroke-width="1.5" stroke-linecap="round" stroke-linejoin="round"/>
<path d="M16 9.33268H22C22.8841 9.33268 23.7319 8.98149 24.357 8.35637C24.9821 7.73125 25.3333 6.8834 25.3333 5.99935C25.3333 5.11529 24.9821 4.26745 24.357 3.64233C23.7319 3.01721 22.8841 2.66602 22 2.66602C17.3333 2.66602 16 9.33268 16 9.33268Z" stroke="#646464" stroke-width="1.5" stroke-linecap="round" stroke-linejoin="round"/>
</svg>
