<svg width="32" height="32" viewBox="0 0 32 32" fill="none" xmlns="http://www.w3.org/2000/svg">
<path d="M18.7001 9.6L18.4 9H16H13.6001L13.4 9.7C12.8 11.4 11.6001 12.9 10.0001 14C3.90005 18.1 5.00005 26.5 12.0001 29.2C14.6 30.2 17.5 30.2 20 29.2C27 26.5 28.1 18 22.1 13.9C20.5 12.8 19.3001 11.4 18.7001 9.6Z" stroke="#646464" stroke-width="1.5" stroke-miterlimit="10" stroke-linecap="round" stroke-linejoin="round"/>
<path d="M10.3999 3.5L13.7999 9" stroke="#646464" stroke-width="1.5" stroke-miterlimit="10" stroke-linecap="round" stroke-linejoin="round"/>
<path d="M11.6001 4.60078L12.7001 3.50078C13.3001 2.90078 14.3001 2.90078 14.9001 3.50078C15.5001 4.10078 16.5001 4.10078 17.1001 3.50078C17.7001 2.90078 18.7001 2.90078 19.3001 3.50078L20.4001 4.60078" stroke="#646464" stroke-width="1.5" stroke-miterlimit="10" stroke-linecap="round" stroke-linejoin="round"/>
<path d="M21.6002 9H18.2002L21.6002 3.5" stroke="#646464" stroke-width="1.5" stroke-miterlimit="10" stroke-linecap="round" stroke-linejoin="round"/>
<path d="M12 23H20" stroke="#646464" stroke-width="1.5" stroke-linecap="round" stroke-linejoin="round"/>
<path d="M12 20H20" stroke="#646464" stroke-width="1.5" stroke-linecap="round" stroke-linejoin="round"/>
</svg>
